<?xml version="1.0" standalone="no"?><!DOCTYPE svg PUBLIC "-//W3C//DTD SVG 1.1//EN" "http://www.w3.org/Graphics/SVG/1.1/DTD/svg11.dtd"><svg t="1766196846279" class="icon" viewBox="0 0 1024 1024" version="1.1" xmlns="http://www.w3.org/2000/svg" p-id="8036" xmlns:xlink="http://www.w3.org/1999/xlink" width="200" height="200"><path d="M249.791 418.624l-17.386 68.873-9.361 61.184-45.804-130.057h-66.533L53.201 648.647h56.837l28.753-115.681 1.337-5.015 0.669-5.015 0.668-12.706 0.334-11.033 8.024 28.883c2.226 9.185 4.346 16.571 6.353 22.166l8.358 25.859 12.705 33.919 14.042 38.621h58.175l57.171-230.023h-56.836zM603.566 478.193l-57.527-0.057-70.911 65.53 31.429-124.374h-66.869l-57.171 229.355h66.533l11.701-46.472 21.732-21.398 15.38 67.87h68.539l-29.05-111.516zM789.065 539.319c0-3.118-0.225-6.128-0.668-9.026-0.45-2.895-1.004-5.569-1.672-8.025-2.675-11.142-7.747-20.279-15.213-27.415-7.47-7.131-15.996-12.313-25.576-15.546-9.586-3.229-20.395-4.848-32.431-4.848-6.912 0-12.485 0.334-16.717 1.003-4.237 0.669-7.915 1.453-11.033 2.34a696.48 696.48 0 0 1-8.358 2.34c-6.243 2.006-12.428 4.514-18.556 7.523-6.133 3.009-11.535 6.075-16.216 9.194-10.698 7.58-19.95 16.942-27.75 28.085-7.805 11.147-13.598 23.628-17.385 37.445-2.007 8.473-3.01 16.273-3.01 23.403 0 5.799 0.669 11.258 2.006 16.383 2.675 12.036 7.8 21.68 15.38 28.92 7.575 7.245 16.383 12.653 26.413 16.216 10.029 3.563 20.729 5.35 32.096 5.35 7.8 0 15.714-0.951 23.738-2.842 8.023-1.892 16.048-4.624 24.072-8.191 15.823-6.906 29.923-17.387 42.293-31.428 12.371-14.043 21.116-31.313 26.246-51.822 1.558-6.02 2.341-12.372 2.341-19.059z m-74.556 25.076c-4.462 17.386-9.477 29.813-15.045 37.279-5.574 7.47-12.596 11.199-21.063 11.199-7.355 0-12.036-3.896-14.042-11.701l-1.003-9.695c0-3.563 0.334-7.523 1.003-11.869a144.718 144.718 0 0 1 2.675-13.207c8.468-33.877 20.729-50.818 36.776-50.818 10.03 0 15.045 6.91 15.045 20.729-0.001 7.803-1.453 17.165-4.346 28.083zM979.969 497.527c-3.124-8.468-8.14-14.543-15.045-18.221-6.912-3.678-15.38-5.517-25.41-5.517-11.147 0-22.4 2.674-33.768 8.024-11.368 5.35-19.173 12.151-23.404 20.395l6.353-24.741H825.84l-42.796 171.18h66.522l27.458-109.657c1.337-5.793 4.623-10.531 9.857-14.209s10.417-5.521 15.547-5.521c4.231 0 7.125 1.117 8.688 3.343 1.557 2.23 2.34 4.571 2.34 7.021l-1.003 5.355-28.444 113.669h66.204l29.421-119.358c1.782-7.131 2.675-13.148 2.675-18.054 0-5.35-0.784-9.916-2.34-13.709zM325.347 477.467l-42.795 171.18h65.864l42.795-171.18z" p-id="8037"></path><path d="M359.691 443.269m-30.521 0a30.521 30.521 0 1 0 61.042 0 30.521 30.521 0 1 0-61.042 0Z" p-id="8038"></path></svg>